# xmcd CD database file
#
# Track frame offsets:
#	150
#	38038
#	55870
#	88694
#	104275
#	127110
#	146835
#	171275
#	206200
#	236652
#	270934
#	290010
#
# Disc length: 4254 seconds
#
# Revision: 0
# Processed by: cddbd v1.4PL0 Copyright (c) Steve Scherf et al.
# Submitted via: CDex 1.51
#
DISCID=b6109c0c
DTITLE=Various Artist - Moment by Moment
DYEAR=2000
DGENRE=New Age
TTITLE0=Eternity (Awakening)
TTITLE1=Koali (Energy)
TTITLE2=Amanoa (Relaxation)
TTITLE3=Chandrakauns (Nature - Woods)
TTITLE4=Bejaria (Daydreaming)
TTITLE5=Mahabharat (Island)
TTITLE6=Andantino Espressivo (The Self)
TTITLE7=Kadagatan (Nature - Ocean)
TTITLE8=Samudera (Sensuality)
TTITLE9=Yaouankaat (Bathing)
TTITLE10=Haawa (Moon)
TTITLE11=Taa'eva (Falling sleep)
EXTD=YEAR: 2000
EXTT0=
EXTT1=
EXTT2=
EXTT3=
EXTT4=
EXTT5=
EXTT6=
EXTT7=
EXTT8=
EXTT9=
EXTT10=
EXTT11=
PLAYORDER=
